<svg width="28" height="28" viewBox="0 0 28 28" fill="none" xmlns="http://www.w3.org/2000/svg">
<path d="M21.7124 0.27107H6.95234C6.95234 0.27107 6.91634 0.27107 6.89834 0.27107C3.64034 0.27107 0.96733 2.89908 0.91333 6.17508V21.3761C0.93133 22.9691 1.57033 24.4631 2.71333 25.5701C3.83834 26.6681 5.31434 27.2711 6.87134 27.2711C6.89834 27.2711 6.91634 27.2711 6.94334 27.2711H21.6854C21.6854 27.2711 21.7304 27.2711 21.7574 27.2711C25.0154 27.2711 27.6794 24.6431 27.7244 21.3671V6.16608C27.6884 2.89008 25.0064 0.22607 21.7124 0.27107ZM24.5384 21.3671C24.5384 22.8611 23.3234 24.0851 21.8294 24.0851H6.92534C5.42234 24.1391 4.17134 22.9601 4.11734 21.4841V6.17508C4.11734 4.68108 5.33234 3.45708 6.82634 3.45708H21.7124C23.2064 3.40308 24.4664 4.58208 24.5204 6.05808L24.5384 21.3761V21.3671Z" fill="white"/>
<path d="M14.3322 6.5166C10.3362 6.5166 7.08716 9.76561 7.08716 13.7616C7.08716 17.7576 10.3362 21.0066 14.3322 21.0066C18.3282 21.0066 21.5772 17.7576 21.5772 13.7616C21.5772 9.76561 18.3282 6.5166 14.3322 6.5166ZM18.3552 13.7616C18.3462 15.8046 16.7982 17.5056 14.8092 17.7576L14.3232 17.7306C12.1002 17.7306 10.2912 15.9216 10.2912 13.6986C10.2912 11.4756 12.1002 9.66661 14.3232 9.66661C16.5462 9.66661 18.3552 11.4756 18.3552 13.7616Z" fill="white"/>
<path d="M21.5861 8.74102C22.7343 8.74102 23.6651 7.81021 23.6651 6.66201C23.6651 5.51381 22.7343 4.58301 21.5861 4.58301C20.4379 4.58301 19.5071 5.51381 19.5071 6.66201C19.5071 7.81021 20.4379 8.74102 21.5861 8.74102Z" fill="white"/>
</svg>
